<?xml version="1.0" encoding="UTF-8" standalone="no"?>
<svg width="98px" height="96px" viewBox="0 0 98 96" version="1.1" xmlns="http://www.w3.org/2000/svg" xmlns:xlink="http://www.w3.org/1999/xlink" xmlns:sketch="http://www.bohemiancoding.com/sketch/ns">
    <!-- Generator: Sketch 3.4.2 (15857) - http://www.bohemiancoding.com/sketch -->
    <title>Rectangle 48 + logo 3</title>
    <desc>Created with Sketch.</desc>
    <defs>
        <rect id="path-1" x="0" y="0" width="126" height="137"></rect>
    </defs>
    <g id="Page-1" stroke="none" stroke-width="1" fill="none" fill-rule="evenodd" sketch:type="MSPage">
        <g id="Rectangle-48-+-logo-3" sketch:type="MSLayerGroup" transform="translate(-12.000000, -26.000000)">
            <mask id="mask-2" sketch:name="Rectangle 48" fill="white">
                <use xlink:href="#path-1"></use>
            </mask>
            <use id="Rectangle-48" sketch:type="MSShapeGroup" xlink:href="#path-1"></use>
            <g id="logo" mask="url(#mask-2)" sketch:type="MSShapeGroup">
                <g transform="translate(60.379310, 74.780574) scale(-1, 1) translate(-60.379310, -74.780574) translate(11.379310, 26.780574)">
                    <ellipse id="Oval-60" fill="#FFFFFF" cx="45.6150575" cy="46.0393879" rx="40.6249425" ry="40.8037666"></ellipse>
                    <path d="M96.8677381,41.2914177 C95.9684266,37.8092062 95.0687295,34.3258339 94.1694179,30.8436225 L93.7839436,30.8436225 L93.7839436,30.0697117 L93.3984692,30.0697117 L93.3984692,28.9088456 L93.0129949,28.9088456 C92.7558835,28.1349348 92.4991577,27.3610241 92.2420463,26.5871133 L91.856572,26.5871133 C91.728209,26.0713018 91.5994606,25.5551033 91.4710976,25.0392918 L90.700149,24.6523365 L90.700149,23.8784257 L90.3146747,23.8784257 L90.3146747,23.1045149 L89.9292003,23.1045149 C88.2589401,16.5270474 86.5882944,9.94764516 84.9180342,3.36979071 C82.3484623,3.52612068 80.6057329,4.8734993 78.750445,5.69152297 L77.594022,5.69152297 L77.594022,6.07847835 C76.5046716,6.59777246 75.6774437,6.37295139 74.8957018,7.23934448 L71.4264329,6.07847835 C71.2980699,5.82037911 71.1693215,5.56266683 71.0409586,5.30456759 L69.8845356,5.30456759 L69.8845356,4.91761222 L69.1135869,4.91761222 L69.1135869,4.53065684 C68.5997497,4.4018007 68.0855269,4.2725576 67.5716897,4.14370146 L67.5716897,3.75674609 C66.800741,3.62788995 66.0297924,3.49864685 65.2588437,3.36979071 L65.2588437,2.98283533 L64.4878951,2.98283533 L64.4878951,2.59587995 C63.5885835,2.46702381 62.6888864,2.33778072 61.7895748,2.20892458 L61.7895748,1.8219692 L60.2476775,1.8219692 L60.2476775,1.43501382 L58.7057802,1.43501382 L58.7057802,1.04805845 C57.03552,0.919202305 55.3648743,0.789959209 53.6946141,0.661103068 C52.4175376,0.298138925 45.4604971,-0.227346478 43.6722817,0.274147691 L43.6722817,0.661103068 C42.0020214,0.789959209 40.3313757,0.919202305 38.6611155,1.04805845 L38.6611155,1.43501382 C37.1192182,1.69311306 35.5773209,1.95082534 34.0354236,2.20892458 L25.9404628,5.69152297 C25.1668159,4.76592571 23.9845661,4.75354314 22.8566683,4.14370146 L22.8566683,3.75674609 C22.0857196,3.49864685 21.314771,3.24093457 20.5438223,2.98283533 C19.0235116,2.16171602 17.6874576,0.827880836 15.5326561,0.661103068 C15.2142544,3.49516425 13.7910832,6.18876063 12.8343359,8.40021061 L12.8343359,9.56107674 L12.4488616,9.56107674 C12.1917502,10.7219429 11.9350243,11.882809 11.6779129,13.0436751 L11.2924386,13.0436751 C11.0353272,14.2045413 10.7786013,15.3654074 10.52149,16.5262735 L10.1360156,16.5262735 L10.1360156,17.3001843 L9.75054131,17.3001843 L9.75054131,18.4610504 L9.36506699,18.4610504 C9.23670404,19.2349612 9.10795562,20.0088719 8.97959267,20.7827827 L8.59411835,20.7827827 L8.59411835,21.5566934 C8.33700697,21.6855496 8.08028108,21.8147927 7.8231697,21.9436488 L7.8231697,22.7175596 C7.56605833,22.8464157 7.30933243,22.9756588 7.05222106,23.1045149 C6.92385811,23.6203265 6.79510969,24.1365249 6.66674674,24.6523365 C6.40963536,24.7811926 6.15290947,24.9104357 5.89579809,25.0392918 C5.76743514,25.5551033 5.63868672,26.0713018 5.51032377,26.5871133 L5.12484945,26.5871133 C4.9964865,27.1029249 4.86773807,27.6191233 4.73937513,28.1349348 L4.3539008,28.1349348 L4.3539008,29.295801 L3.96842648,29.295801 C3.84006353,29.8116125 3.71131511,30.327811 3.58295216,30.8436225 L3.19747784,30.8436225 L3.19747784,32.0044886 L2.81200351,32.0044886 L2.81200351,33.1653548 L2.42652919,33.1653548 L2.42652919,34.3262209 L2.04105487,34.3262209 L2.04105487,35.8740424 L1.65558055,35.8740424 L1.65558055,37.4218639 L1.27010623,37.4218639 L1.27010623,39.3566408 C-0.833812626,46.2622464 0.560447998,56.3764861 2.81200351,62.187008 C2.94036646,62.9609188 3.06911489,63.7348295 3.19747784,64.5087403 L3.58295216,64.5087403 L3.58295216,65.2826511 L3.96842648,65.2826511 L3.96842648,66.4435172 L4.3539008,66.4435172 C4.61101218,67.2174279 4.86773807,67.9913387 5.12484945,68.7652494 L5.51032377,68.7652494 L5.51032377,69.5391602 L5.89579809,69.5391602 C6.02416104,70.0549717 6.15290947,70.5711702 6.28127241,71.0869817 C6.53838379,71.2158379 6.79510969,71.3450809 7.05222106,71.4739371 C7.18058401,71.9897486 7.30933243,72.5059471 7.43769538,73.0217586 C7.69480675,73.1506147 7.95153265,73.2798578 8.20864403,73.408714 L8.20864403,74.1826247 C8.59411835,74.440724 8.97959267,74.6984362 9.36506699,74.9565355 L9.36506699,75.7304462 C9.75054131,75.9885455 10.1360156,76.2462578 10.52149,76.504357 L10.52149,77.2782677 C11.4208016,78.0521785 12.3204986,78.8260893 13.2198102,79.6 L13.2198102,80.3739108 C14.1191218,81.0185784 15.0188189,81.66402 15.9181305,82.3086877 C16.5607162,83.0825984 17.2029164,83.8565092 17.8455021,84.6304199 L18.6164507,84.6304199 C18.8735621,85.0173753 19.130288,85.4043307 19.3873994,85.791286 L20.158348,85.791286 L20.5438223,86.5651968 L21.314771,86.5651968 L21.7002453,87.3391076 L22.4711939,87.3391076 L22.8566683,88.1130183 C23.3705055,88.2418744 23.8847283,88.3711175 24.3985656,88.4999737 L24.7840399,89.2738844 C25.2978772,89.4027406 25.8120999,89.5319837 26.3259372,89.6608398 L26.3259372,90.0477952 C27.0968858,90.3058944 27.8678345,90.5636067 28.6387831,90.8217059 L28.6387831,91.2086613 L29.7952061,91.2086613 L29.7952061,91.5956167 L30.5661547,91.5956167 L30.5661547,91.9825721 L31.7225777,91.9825721 L31.7225777,92.3695275 L32.8790007,92.3695275 L32.8790007,92.7564828 L34.0354236,92.7564828 L34.0354236,93.1434382 L35.1918466,93.1434382 L35.1918466,93.5303936 L36.7337439,93.5303936 L36.7337439,93.917349 L38.2756412,93.917349 L38.2756412,94.3043043 L40.2030128,94.3043043 L40.2030128,94.6912597 L42.901333,94.6912597 L42.901333,95.0782151 L47.9124992,95.0782151 C53.0662909,95.0782151 56.9229615,94.7674899 60.6331519,93.5303936 L62.1750491,93.5303936 L62.1750491,93.1434382 C63.0743607,93.0145821 63.9740578,92.885339 64.8733694,92.7564828 L64.8733694,92.3695275 L65.644318,92.3695275 L65.644318,91.9825721 C66.4152667,91.8537159 67.1862153,91.7244728 67.957164,91.5956167 L67.957164,91.2086613 C68.7281126,90.9505621 69.4990613,90.6928498 70.2700099,90.4347506 L70.2700099,90.0477952 L71.0409586,90.0477952 L71.0409586,89.6608398 L71.8119072,89.6608398 L72.5828558,88.8869291 L73.3538045,88.8869291 C73.4821674,88.6288298 73.6109159,88.3711175 73.7392788,88.1130183 L74.5102275,88.1130183 L74.5102275,87.7260629 L75.2811761,87.7260629 C75.409539,87.4679637 75.5382875,87.2102514 75.6666504,86.9521522 L76.4375991,86.9521522 C76.565962,86.6940529 76.6947104,86.4363407 76.8230734,86.1782414 L77.594022,86.1782414 C77.722385,85.9201422 77.8511334,85.6624299 77.9794964,85.4043307 C78.3649707,85.2754745 78.750445,85.1462314 79.1359193,85.0173753 C79.7781195,84.2434645 80.4210907,83.4695538 81.0632909,82.695643 L81.8342396,82.695643 C82.0913509,82.3086877 82.3480768,81.9217323 82.6051882,81.5347769 C83.5044998,80.7608661 84.4041969,79.9869554 85.3035085,79.2130446 L85.3035085,78.4391339 C85.9457087,77.9233224 86.5886799,77.4071239 87.2308801,76.8913124 L87.2308801,76.1174016 C87.6163544,75.8593024 88.0018287,75.6015901 88.3873031,75.3434909 L88.3873031,74.5695801 C88.6444144,74.440724 88.9011403,74.3114809 89.1582517,74.1826247 L89.1582517,73.408714 C89.4153631,73.2798578 89.672089,73.1506147 89.9292003,73.0217586 L89.9292003,72.2478478 C90.1863117,72.1189917 90.4430376,71.9897486 90.700149,71.8608925 C90.9572604,71.0869817 91.2139863,70.313071 91.4710976,69.5391602 L91.856572,69.5391602 L91.856572,68.7652494 L92.2420463,68.7652494 L92.2420463,67.9913387 L92.6275206,67.9913387 C92.884632,67.2174279 93.1413579,66.4435172 93.3984692,65.6696064 L93.7839436,65.6696064 L93.7839436,64.5087403 L94.1694179,64.5087403 L94.1694179,63.3478742 L94.5548922,63.3478742 L94.5548922,62.187008 L94.9403665,62.187008 L94.9403665,61.0261419 L95.3258409,61.0261419 L95.3258409,59.8652758 L95.7113152,59.8652758 L95.7113152,58.3174543 L96.0967895,58.3174543 L96.0967895,56.3826774 L96.4822638,56.3826774 L96.4822638,54.0609451 L96.8677381,54.0609451 L96.8677381,49.804436 L97.2532125,49.804436 L97.2532125,45.5479268 L96.8677381,45.5479268 L96.8677381,41.2914177 Z M84.1470855,47.0957483 L83.7616112,47.0957483 C83.6332482,47.6115598 83.5044998,48.1277583 83.3761369,48.6435698 L82.9906625,48.6435698 L82.9906625,49.4174806 C82.6051882,49.6755798 82.2197139,49.9332921 81.8342396,50.1913913 L81.8342396,50.9653021 L81.4487653,50.9653021 C81.0632909,51.4811136 80.6778166,51.9973121 80.2923423,52.5131236 L79.5213936,52.5131236 C79.2642823,52.900079 79.0075564,53.2870344 78.750445,53.6739897 L75.2811761,54.8348559 L75.2811761,55.2218112 C73.6109159,55.4799105 71.9402701,55.7376228 70.2700099,55.995722 L70.2700099,55.6087666 C68.856861,55.4799105 67.4429412,55.3506674 66.0297924,55.2218112 L66.0297924,54.8348559 C65.2588437,54.5767566 64.4878951,54.3190444 63.7169464,54.0609451 L63.7169464,53.6739897 L62.9459978,53.6739897 C62.8176348,53.4158905 62.6888864,53.1581782 62.5605235,52.900079 L61.7895748,52.900079 L61.7895748,52.5131236 C60.8983582,51.7686215 60.3579232,50.9436326 59.0912546,50.5783467 C58.5959201,52.4279934 56.7980678,53.255304 55.6219857,54.4479005 C55.3648743,54.8348559 55.1081484,55.2218112 54.851037,55.6087666 L54.4655627,55.6087666 L54.4655627,56.3826774 C53.1807768,57.5435435 51.8956054,58.7044096 50.6108195,59.8652758 C50.0187309,60.5169086 50.3190154,60.8554946 49.4543965,61.4130973 C49.1252014,61.849196 49.5064355,61.4734623 49.0689222,61.8000527 C48.1696106,60.6391865 47.2699135,59.4783204 46.3706019,58.3174543 C45.9851276,58.059355 45.5996533,57.8016427 45.214179,57.5435435 L45.214179,56.7696328 C44.4432303,56.1249651 43.6722817,55.4795235 42.901333,54.8348559 L42.901333,54.0609451 C42.6442217,53.932089 42.3874958,53.8028459 42.1303844,53.6739897 C41.1535925,52.6361754 40.1259179,51.4892397 39.4320641,50.1913913 C38.1638536,50.5566772 37.6268879,51.38244 36.7337439,52.1261682 L36.7337439,52.5131236 L35.9627952,52.5131236 L35.5773209,53.2870344 C33.6499493,53.931702 31.7225777,54.5771436 29.7952061,55.2218112 C28.6422524,55.561945 24.4170683,54.7551431 23.6276169,54.4479005 L23.6276169,54.0609451 C22.4711939,53.6739897 21.314771,53.2870344 20.158348,52.900079 C19.7728737,52.3842675 19.3873994,51.868069 19.001925,51.3522575 L18.2309764,51.3522575 C18.1026135,50.9653021 17.973865,50.5783467 17.8455021,50.1913913 C17.3316648,49.804436 16.8174421,49.4174806 16.3036048,49.0305252 L16.3036048,48.2566145 C16.0464934,48.1273714 15.7897675,47.9989022 15.5326561,47.8696591 C15.4042932,47.2249914 15.2755448,46.5795499 15.1471818,45.9348822 C14.5084509,44.3526217 13.156207,41.0429923 13.9907589,38.1957747 L14.3762332,38.1957747 L14.3762332,36.6479531 L14.7617075,36.6479531 L14.7617075,35.487087 C16.8344029,30.657497 23.3866955,24.456924 31.3371034,26.9740687 L32.8790007,26.9740687 C38.4309873,29.1270884 42.6530876,34.1013998 42.5158587,42.0653284 C47.1411651,42.1945715 51.7676279,42.3230407 56.3929343,42.4522838 C56.3906215,35.9313118 59.9242646,30.787514 64.1024208,28.5218902 L65.2588437,28.5218902 L65.2588437,28.1349348 L66.0297924,28.1349348 L66.0297924,27.7479795 L67.5716897,27.7479795 C74.892618,25.3302823 81.8677758,30.6942577 84.1470855,35.8740424 L84.1470855,37.0349085 L84.5325598,37.0349085 C85.4492178,39.3744407 84.9858776,45.1629062 84.1470855,47.0957483 L84.1470855,47.0957483 Z M27.8678345,32.0044886 C26.815875,31.8028849 25.8733903,31.602442 24.3985656,31.6175332 L24.3985656,32.0044886 L23.6276169,32.0044886 C23.499254,32.2622009 23.3705055,32.5206871 23.2421426,32.7783994 L22.8566683,32.7783994 L22.8566683,33.9392655 C22.0317532,36.1189851 23.1199472,36.3434193 24.0130912,37.8088193 L27.4823601,37.8088193 L27.4823601,37.4218639 C28.2760518,36.8340787 29.9968091,34.9438017 28.6387831,33.5523101 C28.4017164,32.6135564 28.2317222,32.7010083 27.8678345,32.0044886 L27.8678345,32.0044886 Z M70.2700099,32.7783994 C69.2180505,32.5767956 68.2755658,32.3763527 66.800741,32.391444 C66.4272164,32.8673991 65.8578708,32.8790078 65.644318,33.1653548 C65.2164415,33.7395965 65.62967,34.0634782 64.8733694,34.7131763 C64.9708944,36.8557482 65.6724577,37.2860426 66.4152667,38.58273 L67.957164,38.58273 L67.957164,38.9696854 L68.3426383,38.9696854 L68.3426383,38.58273 C70.4195739,38.5668649 72.6788389,35.9715551 71.0409586,34.3262209 C70.8038918,33.3874671 70.6338977,33.4749191 70.2700099,32.7783994 L70.2700099,32.7783994 Z" id="Shape" fill="#FF8B00"></path>
                </g>
            </g>
        </g>
    </g>
</svg>